<?xml version="1.0" encoding="UTF-8"?>
<!DOCTYPE svg
PUBLIC "-//W3C//DTD SVG 1.1//EN"
       "http://www.w3.org/Graphics/SVG/1.1/DTD/svg11.dtd">
<svg viewBox="393 -11 1442 789" width="1049px" height="800px" xmlns="http://www.w3.org/2000/svg" version="1.1">
   <line x1="911" y1="111" x2="901" y2="111" style="stroke:#0b0;stroke-width:1;"/>
   <line x1="778" y1="257" x2="768" y2="257" style="stroke:#0b0;stroke-width:1;"/>
   <line x1="901" y1="111" x2="778" y2="257" style="stroke:#0b0;stroke-width:1;"/>
   <line x1="903.5" y1="111" x2="907.03553390593" y2="114.53553390593" style="stroke:#0b0;stroke-width:2;"/>
   <line x1="903.5" y1="111" x2="907.03553390593" y2="107.46446609407" style="stroke:#0b0;stroke-width:2;"/>
   <line x1="773" y1="257" x2="776.53553390593" y2="260.53553390593" style="stroke:#0b0;stroke-width:2;"/>
   <line x1="773" y1="257" x2="776.53553390593" y2="253.46446609407" style="stroke:#0b0;stroke-width:2;"/>
   <line x1="997" y1="131" x2="1007" y2="131" style="stroke:#0b0;stroke-width:1;"/>
   <line x1="1120" y1="398" x2="1130" y2="398" style="stroke:#0b0;stroke-width:1;"/>
   <line x1="1007" y1="131" x2="1120" y2="398" style="stroke:#0b0;stroke-width:1;"/>
   <line x1="1004.5" y1="131" x2="1000.9644660941" y2="134.53553390593" style="stroke:#0b0;stroke-width:2;"/>
   <line x1="1004.5" y1="131" x2="1000.9644660941" y2="127.46446609407" style="stroke:#0b0;stroke-width:2;"/>
   <line x1="1125" y1="398" x2="1121.4644660941" y2="401.53553390593" style="stroke:#0b0;stroke-width:2;"/>
   <line x1="1125" y1="398" x2="1121.4644660941" y2="394.46446609407" style="stroke:#0b0;stroke-width:2;"/>
   <line x1="1330" y1="297" x2="1320" y2="297" style="stroke:#333;stroke-width:1;"/>
   <line x1="1226" y1="398" x2="1216" y2="398" style="stroke:#333;stroke-width:1;"/>
   <line x1="1320" y1="297" x2="1226" y2="398" style="stroke:#333;stroke-width:1;"/>
   <line x1="1322.5" y1="297" x2="1326.0355339059" y2="300.53553390593" style="stroke:#333;stroke-width:2;"/>
   <line x1="1322.5" y1="297" x2="1326.0355339059" y2="293.46446609407" style="stroke:#333;stroke-width:2;"/>
   <line x1="1221" y1="398" x2="1224.5355339059" y2="401.53553390593" style="stroke:#333;stroke-width:2;"/>
   <line x1="1221" y1="398" x2="1224.5355339059" y2="394.46446609407" style="stroke:#333;stroke-width:2;"/>
   <line x1="1132" y1="58" x2="1122" y2="58" style="stroke:#cb0;stroke-width:1;"/>
   <line x1="1120" y1="398" x2="1130" y2="398" style="stroke:#cb0;stroke-width:1;"/>
   <line x1="1122" y1="58" x2="1120" y2="398" style="stroke:#cb0;stroke-width:1;"/>
   <line x1="1124.5" y1="58" x2="1128.0355339059" y2="61.535533905933" style="stroke:#cb0;stroke-width:2;"/>
   <line x1="1124.5" y1="58" x2="1128.0355339059" y2="54.464466094067" style="stroke:#cb0;stroke-width:2;"/>
   <line x1="1125" y1="398" x2="1121.4644660941" y2="401.53553390593" style="stroke:#cb0;stroke-width:2;"/>
   <line x1="1125" y1="398" x2="1121.4644660941" y2="394.46446609407" style="stroke:#cb0;stroke-width:2;"/>
   <line x1="904" y1="353" x2="894" y2="353" style="stroke:#bbb;stroke-width:1;"/>
   <line x1="778" y1="257" x2="768" y2="257" style="stroke:#bbb;stroke-width:1;"/>
   <line x1="894" y1="353" x2="778" y2="257" style="stroke:#bbb;stroke-width:1;"/>
   <line x1="896.5" y1="353" x2="900.03553390593" y2="356.53553390593" style="stroke:#bbb;stroke-width:2;"/>
   <line x1="896.5" y1="353" x2="900.03553390593" y2="349.46446609407" style="stroke:#bbb;stroke-width:2;"/>
   <line x1="773" y1="257" x2="776.53553390593" y2="260.53553390593" style="stroke:#bbb;stroke-width:2;"/>
   <line x1="773" y1="257" x2="776.53553390593" y2="253.46446609407" style="stroke:#bbb;stroke-width:2;"/>
   <line x1="1000" y1="393" x2="1010" y2="393" style="stroke:#0bf;stroke-width:1;"/>
   <line x1="1120" y1="398" x2="1130" y2="398" style="stroke:#0bf;stroke-width:1;"/>
   <line x1="1010" y1="393" x2="1120" y2="398" style="stroke:#0bf;stroke-width:1;"/>
   <line x1="1007.5" y1="393" x2="1003.9644660941" y2="396.53553390593" style="stroke:#0bf;stroke-width:2;"/>
   <line x1="1007.5" y1="393" x2="1003.9644660941" y2="389.46446609407" style="stroke:#0bf;stroke-width:2;"/>
   <line x1="1125" y1="398" x2="1121.4644660941" y2="401.53553390593" style="stroke:#0bf;stroke-width:2;"/>
   <line x1="1125" y1="398" x2="1121.4644660941" y2="394.46446609407" style="stroke:#0bf;stroke-width:2;"/>
   <line x1="904" y1="373" x2="894" y2="373" style="stroke:#b0b;stroke-width:1;"/>
   <line x1="778" y1="257" x2="768" y2="257" style="stroke:#b0b;stroke-width:1;"/>
   <line x1="894" y1="373" x2="778" y2="257" style="stroke:#b0b;stroke-width:1;"/>
   <line x1="896.5" y1="373" x2="900.03553390593" y2="376.53553390593" style="stroke:#b0b;stroke-width:2;"/>
   <line x1="896.5" y1="373" x2="900.03553390593" y2="369.46446609407" style="stroke:#b0b;stroke-width:2;"/>
   <line x1="773" y1="257" x2="776.53553390593" y2="260.53553390593" style="stroke:#b0b;stroke-width:2;"/>
   <line x1="773" y1="257" x2="776.53553390593" y2="253.46446609407" style="stroke:#b0b;stroke-width:2;"/>
   <line x1="1000" y1="413" x2="1010" y2="413" style="stroke:#bbb;stroke-width:1;"/>
   <line x1="1136" y1="638" x2="1146" y2="638" style="stroke:#bbb;stroke-width:1;"/>
   <line x1="1010" y1="413" x2="1136" y2="638" style="stroke:#bbb;stroke-width:1;"/>
   <line x1="1007.5" y1="413" x2="1003.9644660941" y2="416.53553390593" style="stroke:#bbb;stroke-width:2;"/>
   <line x1="1007.5" y1="413" x2="1003.9644660941" y2="409.46446609407" style="stroke:#bbb;stroke-width:2;"/>
   <line x1="1141" y1="638" x2="1137.4644660941" y2="641.53553390593" style="stroke:#bbb;stroke-width:2;"/>
   <line x1="1141" y1="638" x2="1137.4644660941" y2="634.46446609407" style="stroke:#bbb;stroke-width:2;"/>
   <line x1="1324" y1="54" x2="1314" y2="54" style="stroke:#cb0;stroke-width:1;"/>
   <line x1="1226" y1="398" x2="1216" y2="398" style="stroke:#cb0;stroke-width:1;"/>
   <line x1="1314" y1="54" x2="1226" y2="398" style="stroke:#cb0;stroke-width:1;"/>
   <line x1="1316.5" y1="54" x2="1320.0355339059" y2="57.535533905933" style="stroke:#cb0;stroke-width:2;"/>
   <line x1="1316.5" y1="54" x2="1320.0355339059" y2="50.464466094067" style="stroke:#cb0;stroke-width:2;"/>
   <line x1="1221" y1="398" x2="1224.5355339059" y2="401.53553390593" style="stroke:#cb0;stroke-width:2;"/>
   <line x1="1221" y1="398" x2="1224.5355339059" y2="394.46446609407" style="stroke:#cb0;stroke-width:2;"/>
   <line x1="505" y1="66" x2="515" y2="66" style="stroke:#cb0;stroke-width:1;"/>
   <line x1="672" y1="257" x2="682" y2="257" style="stroke:#cb0;stroke-width:1;"/>
   <line x1="515" y1="66" x2="672" y2="257" style="stroke:#cb0;stroke-width:1;"/>
   <line x1="512.5" y1="66" x2="508.96446609407" y2="69.535533905933" style="stroke:#cb0;stroke-width:2;"/>
   <line x1="512.5" y1="66" x2="508.96446609407" y2="62.464466094067" style="stroke:#cb0;stroke-width:2;"/>
   <line x1="677" y1="257" x2="673.46446609407" y2="260.53553390593" style="stroke:#cb0;stroke-width:2;"/>
   <line x1="677" y1="257" x2="673.46446609407" y2="253.46446609407" style="stroke:#cb0;stroke-width:2;"/>
   <line x1="505" y1="86" x2="515" y2="86" style="stroke:#333;stroke-width:1;"/>
   <line x1="901" y1="91" x2="911" y2="91" style="stroke:#333;stroke-width:1;"/>
   <line x1="515" y1="86" x2="901" y2="91" style="stroke:#333;stroke-width:1;"/>
   <line x1="512.5" y1="86" x2="508.96446609407" y2="89.535533905933" style="stroke:#333;stroke-width:2;"/>
   <line x1="512.5" y1="86" x2="508.96446609407" y2="82.464466094067" style="stroke:#333;stroke-width:2;"/>
   <line x1="906" y1="91" x2="902.46446609407" y2="94.535533905933" style="stroke:#333;stroke-width:2;"/>
   <line x1="906" y1="91" x2="902.46446609407" y2="87.464466094067" style="stroke:#333;stroke-width:2;"/>
   <line x1="1216" y1="438" x2="1226" y2="438" style="stroke:#bbb;stroke-width:1;"/>
   <line x1="1328" y1="542" x2="1338" y2="542" style="stroke:#bbb;stroke-width:1;"/>
   <line x1="1226" y1="438" x2="1328" y2="542" style="stroke:#bbb;stroke-width:1;"/>
   <line x1="1223.5" y1="438" x2="1219.9644660941" y2="441.53553390593" style="stroke:#bbb;stroke-width:2;"/>
   <line x1="1223.5" y1="438" x2="1219.9644660941" y2="434.46446609407" style="stroke:#bbb;stroke-width:2;"/>
   <line x1="1333" y1="542" x2="1329.4644660941" y2="545.53553390593" style="stroke:#bbb;stroke-width:2;"/>
   <line x1="1333" y1="542" x2="1329.4644660941" y2="538.46446609407" style="stroke:#bbb;stroke-width:2;"/>
   <line x1="1338" y1="582" x2="1328" y2="582" style="stroke:#cb0;stroke-width:1;"/>
   <line x1="1331" y1="704" x2="1341" y2="704" style="stroke:#cb0;stroke-width:1;"/>
   <line x1="1328" y1="582" x2="1331" y2="704" style="stroke:#cb0;stroke-width:1;"/>
   <line x1="1330.5" y1="582" x2="1334.0355339059" y2="585.53553390593" style="stroke:#cb0;stroke-width:2;"/>
   <line x1="1330.5" y1="582" x2="1334.0355339059" y2="578.46446609407" style="stroke:#cb0;stroke-width:2;"/>
   <line x1="1336" y1="704" x2="1332.4644660941" y2="707.53553390593" style="stroke:#cb0;stroke-width:2;"/>
   <line x1="1336" y1="704" x2="1332.4644660941" y2="700.46446609407" style="stroke:#cb0;stroke-width:2;"/>
   <line x1="502" y1="315" x2="512" y2="315" style="stroke:#0b0;stroke-width:1;"/>
   <line x1="672" y1="257" x2="682" y2="257" style="stroke:#0b0;stroke-width:1;"/>
   <line x1="512" y1="315" x2="672" y2="257" style="stroke:#0b0;stroke-width:1;"/>
   <line x1="509.5" y1="315" x2="505.96446609407" y2="318.53553390593" style="stroke:#0b0;stroke-width:2;"/>
   <line x1="509.5" y1="315" x2="505.96446609407" y2="311.46446609407" style="stroke:#0b0;stroke-width:2;"/>
   <line x1="677" y1="257" x2="673.46446609407" y2="260.53553390593" style="stroke:#0b0;stroke-width:2;"/>
   <line x1="677" y1="257" x2="673.46446609407" y2="253.46446609407" style="stroke:#0b0;stroke-width:2;"/>
   <line x1="499" y1="569" x2="509" y2="569" style="stroke:#b0b;stroke-width:1;"/>
   <line x1="672" y1="257" x2="682" y2="257" style="stroke:#b0b;stroke-width:1;"/>
   <line x1="509" y1="569" x2="672" y2="257" style="stroke:#b0b;stroke-width:1;"/>
   <line x1="506.5" y1="569" x2="502.96446609407" y2="572.53553390593" style="stroke:#b0b;stroke-width:2;"/>
   <line x1="506.5" y1="569" x2="502.96446609407" y2="565.46446609407" style="stroke:#b0b;stroke-width:2;"/>
   <line x1="677" y1="257" x2="673.46446609407" y2="260.53553390593" style="stroke:#b0b;stroke-width:2;"/>
   <line x1="677" y1="257" x2="673.46446609407" y2="253.46446609407" style="stroke:#b0b;stroke-width:2;"/>
   <rect width="86" height="20" x="1146" y="608" style="fill:#007;stroke:black;"/>
   <text width="86" height="20" x="1151" y="622" style="fill:#fff;" font-family="Arial" font-size="16px"> baixe</text>
   <rect width="86" height="20" x="1146" y="628" style="fill:#aea;stroke:black;"/>
   <text width="86" height="20" x="1151" y="642" style="fill:black;" font-family="Arial" font-size="16px">id_baixe</text>
   <rect width="86" height="20" x="1146" y="648" style="fill:none;stroke:black;"/>
   <text width="86" height="20" x="1151" y="662" style="fill:black;" font-family="Arial" font-size="16px">ms</text>
   <rect width="86" height="20" x="1146" y="668" style="fill:none;stroke:black;"/>
   <text width="86" height="20" x="1151" y="682" style="fill:black;" font-family="Arial" font-size="16px">loaixe</text>
   <rect width="86" height="20" x="1146" y="688" style="fill:none;stroke:black;"/>
   <text width="86" height="20" x="1151" y="702" style="fill:black;" font-family="Arial" font-size="16px">tinhtrang</text>
   <rect width="86" height="20" x="1146" y="708" style="fill:none;stroke:black;"/>
   <text width="86" height="20" x="1151" y="722" style="fill:black;" font-family="Arial" font-size="16px">gia</text>
   <rect width="86" height="20" x="1146" y="728" style="fill:none;stroke:black;"/>
   <text width="86" height="20" x="1151" y="742" style="fill:black;" font-family="Arial" font-size="16px">created_at</text>
   <rect width="86" height="20" x="1146" y="748" style="fill:none;stroke:black;"/>
   <text width="86" height="20" x="1151" y="762" style="fill:black;" font-family="Arial" font-size="16px">updated_at</text>
   <rect width="86" height="20" x="911" y="61" style="fill:#007;stroke:black;"/>
   <text width="86" height="20" x="916" y="75" style="fill:#fff;" font-family="Arial" font-size="16px"> baocaosc</text>
   <rect width="86" height="20" x="911" y="81" style="fill:#aea;stroke:black;"/>
   <text width="86" height="20" x="916" y="95" style="fill:black;" font-family="Arial" font-size="16px">id_baocao</text>
   <rect width="86" height="20" x="911" y="101" style="fill:none;stroke:black;"/>
   <text width="86" height="20" x="916" y="115" style="fill:black;" font-family="Arial" font-size="16px">id_user</text>
   <rect width="86" height="20" x="911" y="121" style="fill:none;stroke:black;"/>
   <text width="86" height="20" x="916" y="135" style="fill:black;" font-family="Arial" font-size="16px">id_phong</text>
   <rect width="86" height="20" x="911" y="141" style="fill:none;stroke:black;"/>
   <text width="86" height="20" x="916" y="155" style="fill:black;" font-family="Arial" font-size="16px">tieude</text>
   <rect width="86" height="20" x="911" y="161" style="fill:none;stroke:black;"/>
   <text width="86" height="20" x="916" y="175" style="fill:black;" font-family="Arial" font-size="16px">noidung</text>
   <rect width="86" height="20" x="911" y="181" style="fill:none;stroke:black;"/>
   <text width="86" height="20" x="916" y="195" style="fill:black;" font-family="Arial" font-size="16px">hinh</text>
   <rect width="86" height="20" x="911" y="201" style="fill:none;stroke:black;"/>
   <text width="86" height="20" x="916" y="215" style="fill:black;" font-family="Arial" font-size="16px">thoigian</text>
   <rect width="86" height="20" x="911" y="221" style="fill:none;stroke:black;"/>
   <text width="86" height="20" x="916" y="235" style="fill:black;" font-family="Arial" font-size="16px">created_at</text>
   <rect width="86" height="20" x="911" y="241" style="fill:none;stroke:black;"/>
   <text width="86" height="20" x="916" y="255" style="fill:black;" font-family="Arial" font-size="16px">updated_at</text>
   <rect width="86" height="20" x="1330" y="247" style="fill:#007;stroke:black;"/>
   <text width="86" height="20" x="1335" y="261" style="fill:#fff;" font-family="Arial" font-size="16px"> dien</text>
   <rect width="86" height="20" x="1330" y="267" style="fill:#aea;stroke:black;"/>
   <text width="86" height="20" x="1335" y="281" style="fill:black;" font-family="Arial" font-size="16px">id</text>
   <rect width="86" height="20" x="1330" y="287" style="fill:none;stroke:black;"/>
   <text width="86" height="20" x="1335" y="301" style="fill:black;" font-family="Arial" font-size="16px">id_phong</text>
   <rect width="86" height="20" x="1330" y="307" style="fill:none;stroke:black;"/>
   <text width="86" height="20" x="1335" y="321" style="fill:black;" font-family="Arial" font-size="16px">chiso_cu</text>
   <rect width="86" height="20" x="1330" y="327" style="fill:none;stroke:black;"/>
   <text width="86" height="20" x="1335" y="341" style="fill:black;" font-family="Arial" font-size="16px">chiso_moi</text>
   <rect width="86" height="20" x="1330" y="347" style="fill:none;stroke:black;"/>
   <text width="86" height="20" x="1335" y="361" style="fill:black;" font-family="Arial" font-size="16px">thoigian</text>
   <rect width="86" height="20" x="1330" y="367" style="fill:none;stroke:black;"/>
   <text width="86" height="20" x="1335" y="381" style="fill:black;" font-family="Arial" font-size="16px">dongia</text>
   <rect width="86" height="20" x="1330" y="387" style="fill:none;stroke:black;"/>
   <text width="86" height="20" x="1335" y="401" style="fill:black;" font-family="Arial" font-size="16px">thanhtien</text>
   <rect width="86" height="20" x="1330" y="407" style="fill:none;stroke:black;"/>
   <text width="86" height="20" x="1335" y="421" style="fill:black;" font-family="Arial" font-size="16px">created_at</text>
   <rect width="86" height="20" x="1330" y="427" style="fill:none;stroke:black;"/>
   <text width="86" height="20" x="1335" y="441" style="fill:black;" font-family="Arial" font-size="16px">updated_at</text>
   <rect width="86" height="20" x="1132" y="8" style="fill:#007;stroke:black;"/>
   <text width="86" height="20" x="1137" y="22" style="fill:#fff;" font-family="Arial" font-size="16px"> hoadon</text>
   <rect width="86" height="20" x="1132" y="28" style="fill:#aea;stroke:black;"/>
   <text width="86" height="20" x="1137" y="42" style="fill:black;" font-family="Arial" font-size="16px">id</text>
   <rect width="86" height="20" x="1132" y="48" style="fill:none;stroke:black;"/>
   <text width="86" height="20" x="1137" y="62" style="fill:black;" font-family="Arial" font-size="16px">id_phong</text>
   <rect width="86" height="20" x="1132" y="68" style="fill:none;stroke:black;"/>
   <text width="86" height="20" x="1137" y="82" style="fill:black;" font-family="Arial" font-size="16px">thoigian</text>
   <rect width="86" height="20" x="1132" y="88" style="fill:none;stroke:black;"/>
   <text width="86" height="20" x="1137" y="102" style="fill:black;" font-family="Arial" font-size="16px">tiendien</text>
   <rect width="86" height="20" x="1132" y="108" style="fill:none;stroke:black;"/>
   <text width="86" height="20" x="1137" y="122" style="fill:black;" font-family="Arial" font-size="16px">tiennuoc</text>
   <rect width="86" height="20" x="1132" y="128" style="fill:none;stroke:black;"/>
   <text width="86" height="20" x="1137" y="142" style="fill:black;" font-family="Arial" font-size="16px">tienbaixe</text>
   <rect width="86" height="20" x="1132" y="148" style="fill:none;stroke:black;"/>
   <text width="86" height="20" x="1137" y="162" style="fill:black;" font-family="Arial" font-size="16px">khac</text>
   <rect width="86" height="20" x="1132" y="168" style="fill:none;stroke:black;"/>
   <text width="86" height="20" x="1137" y="182" style="fill:black;" font-family="Arial" font-size="16px">thuthem</text>
   <rect width="86" height="20" x="1132" y="188" style="fill:none;stroke:black;"/>
   <text width="86" height="20" x="1137" y="202" style="fill:black;" font-family="Arial" font-size="16px">thanhtien</text>
   <rect width="86" height="20" x="1132" y="208" style="fill:none;stroke:black;"/>
   <text width="86" height="20" x="1137" y="222" style="fill:black;" font-family="Arial" font-size="16px">tinhtrang</text>
   <rect width="86" height="20" x="1132" y="228" style="fill:none;stroke:black;"/>
   <text width="86" height="20" x="1137" y="242" style="fill:black;" font-family="Arial" font-size="16px">created_at</text>
   <rect width="86" height="20" x="1132" y="248" style="fill:none;stroke:black;"/>
   <text width="86" height="20" x="1137" y="262" style="fill:black;" font-family="Arial" font-size="16px">updated_at</text>
   <rect width="96" height="20" x="904" y="303" style="fill:#007;stroke:black;"/>
   <text width="96" height="20" x="909" y="317" style="fill:#fff;" font-family="Arial" font-size="16px"> hopdong</text>
   <rect width="96" height="20" x="904" y="323" style="fill:#aea;stroke:black;"/>
   <text width="96" height="20" x="909" y="337" style="fill:black;" font-family="Arial" font-size="16px">id_hopdong</text>
   <rect width="96" height="20" x="904" y="343" style="fill:none;stroke:black;"/>
   <text width="96" height="20" x="909" y="357" style="fill:black;" font-family="Arial" font-size="16px">id_user</text>
   <rect width="96" height="20" x="904" y="363" style="fill:none;stroke:black;"/>
   <text width="96" height="20" x="909" y="377" style="fill:black;" font-family="Arial" font-size="16px">id_ql</text>
   <rect width="96" height="20" x="904" y="383" style="fill:none;stroke:black;"/>
   <text width="96" height="20" x="909" y="397" style="fill:black;" font-family="Arial" font-size="16px">id_phong</text>
   <rect width="96" height="20" x="904" y="403" style="fill:none;stroke:black;"/>
   <text width="96" height="20" x="909" y="417" style="fill:black;" font-family="Arial" font-size="16px">id_baixe</text>
   <rect width="96" height="20" x="904" y="423" style="fill:none;stroke:black;"/>
   <text width="96" height="20" x="909" y="437" style="fill:black;" font-family="Arial" font-size="16px">ngaybatdau</text>
   <rect width="96" height="20" x="904" y="443" style="fill:none;stroke:black;"/>
   <text width="96" height="20" x="909" y="457" style="fill:black;" font-family="Arial" font-size="16px">ngayketthuc</text>
   <rect width="96" height="20" x="904" y="463" style="fill:none;stroke:black;"/>
   <text width="96" height="20" x="909" y="477" style="fill:black;" font-family="Arial" font-size="16px">created_at</text>
   <rect width="96" height="20" x="904" y="483" style="fill:none;stroke:black;"/>
   <text width="96" height="20" x="909" y="497" style="fill:black;" font-family="Arial" font-size="16px">updated_at</text>
   <rect width="86" height="20" x="1324" y="4" style="fill:#007;stroke:black;"/>
   <text width="86" height="20" x="1329" y="18" style="fill:#fff;" font-family="Arial" font-size="16px"> nuoc</text>
   <rect width="86" height="20" x="1324" y="24" style="fill:#aea;stroke:black;"/>
   <text width="86" height="20" x="1329" y="38" style="fill:black;" font-family="Arial" font-size="16px">id</text>
   <rect width="86" height="20" x="1324" y="44" style="fill:none;stroke:black;"/>
   <text width="86" height="20" x="1329" y="58" style="fill:black;" font-family="Arial" font-size="16px">id_phong</text>
   <rect width="86" height="20" x="1324" y="64" style="fill:none;stroke:black;"/>
   <text width="86" height="20" x="1329" y="78" style="fill:black;" font-family="Arial" font-size="16px">chiso_cu</text>
   <rect width="86" height="20" x="1324" y="84" style="fill:none;stroke:black;"/>
   <text width="86" height="20" x="1329" y="98" style="fill:black;" font-family="Arial" font-size="16px">chiso_moi</text>
   <rect width="86" height="20" x="1324" y="104" style="fill:none;stroke:black;"/>
   <text width="86" height="20" x="1329" y="118" style="fill:black;" font-family="Arial" font-size="16px">thoigian</text>
   <rect width="86" height="20" x="1324" y="124" style="fill:none;stroke:black;"/>
   <text width="86" height="20" x="1329" y="138" style="fill:black;" font-family="Arial" font-size="16px">dongia</text>
   <rect width="86" height="20" x="1324" y="144" style="fill:none;stroke:black;"/>
   <text width="86" height="20" x="1329" y="158" style="fill:black;" font-family="Arial" font-size="16px">thanhtien</text>
   <rect width="86" height="20" x="1324" y="164" style="fill:none;stroke:black;"/>
   <text width="86" height="20" x="1329" y="178" style="fill:black;" font-family="Arial" font-size="16px">created_at</text>
   <rect width="86" height="20" x="1324" y="184" style="fill:none;stroke:black;"/>
   <text width="86" height="20" x="1329" y="198" style="fill:black;" font-family="Arial" font-size="16px">updated_at</text>
   <rect width="86" height="20" x="419" y="16" style="fill:#007;stroke:black;"/>
   <text width="86" height="20" x="424" y="30" style="fill:#fff;" font-family="Arial" font-size="16px"> phanhoi</text>
   <rect width="86" height="20" x="419" y="36" style="fill:#aea;stroke:black;"/>
   <text width="86" height="20" x="424" y="50" style="fill:black;" font-family="Arial" font-size="16px">id_phanhoi</text>
   <rect width="86" height="20" x="419" y="56" style="fill:none;stroke:black;"/>
   <text width="86" height="20" x="424" y="70" style="fill:black;" font-family="Arial" font-size="16px">id_user</text>
   <rect width="86" height="20" x="419" y="76" style="fill:none;stroke:black;"/>
   <text width="86" height="20" x="424" y="90" style="fill:black;" font-family="Arial" font-size="16px">id_baocao</text>
   <rect width="86" height="20" x="419" y="96" style="fill:none;stroke:black;"/>
   <text width="86" height="20" x="424" y="110" style="fill:black;" font-family="Arial" font-size="16px">tieude</text>
   <rect width="86" height="20" x="419" y="116" style="fill:none;stroke:black;"/>
   <text width="86" height="20" x="424" y="130" style="fill:black;" font-family="Arial" font-size="16px">noidung</text>
   <rect width="86" height="20" x="419" y="136" style="fill:none;stroke:black;"/>
   <text width="86" height="20" x="424" y="150" style="fill:black;" font-family="Arial" font-size="16px">thoigian</text>
   <rect width="86" height="20" x="419" y="156" style="fill:none;stroke:black;"/>
   <text width="86" height="20" x="424" y="170" style="fill:black;" font-family="Arial" font-size="16px">created_at</text>
   <rect width="86" height="20" x="419" y="176" style="fill:none;stroke:black;"/>
   <text width="86" height="20" x="424" y="190" style="fill:black;" font-family="Arial" font-size="16px">updated_at</text>
   <rect width="86" height="20" x="1130" y="368" style="fill:#007;stroke:black;"/>
   <text width="86" height="20" x="1135" y="382" style="fill:#fff;" font-family="Arial" font-size="16px"> phong</text>
   <rect width="86" height="20" x="1130" y="388" style="fill:#aea;stroke:black;"/>
   <text width="86" height="20" x="1135" y="402" style="fill:black;" font-family="Arial" font-size="16px">id_phong</text>
   <rect width="86" height="20" x="1130" y="408" style="fill:none;stroke:black;"/>
   <text width="86" height="20" x="1135" y="422" style="fill:black;" font-family="Arial" font-size="16px">ten</text>
   <rect width="86" height="20" x="1130" y="428" style="fill:none;stroke:black;"/>
   <text width="86" height="20" x="1135" y="442" style="fill:black;" font-family="Arial" font-size="16px">id_tang</text>
   <rect width="86" height="20" x="1130" y="448" style="fill:none;stroke:black;"/>
   <text width="86" height="20" x="1135" y="462" style="fill:black;" font-family="Arial" font-size="16px">tinhtrang</text>
   <rect width="86" height="20" x="1130" y="468" style="fill:none;stroke:black;"/>
   <text width="86" height="20" x="1135" y="482" style="fill:black;" font-family="Arial" font-size="16px">created_at</text>
   <rect width="86" height="20" x="1130" y="488" style="fill:none;stroke:black;"/>
   <text width="86" height="20" x="1135" y="502" style="fill:black;" font-family="Arial" font-size="16px">updated_at</text>
   <rect width="86" height="20" x="1338" y="512" style="fill:#007;stroke:black;"/>
   <text width="86" height="20" x="1343" y="526" style="fill:#fff;" font-family="Arial" font-size="16px"> tang</text>
   <rect width="86" height="20" x="1338" y="532" style="fill:#aea;stroke:black;"/>
   <text width="86" height="20" x="1343" y="546" style="fill:black;" font-family="Arial" font-size="16px">id_tang</text>
   <rect width="86" height="20" x="1338" y="552" style="fill:none;stroke:black;"/>
   <text width="86" height="20" x="1343" y="566" style="fill:black;" font-family="Arial" font-size="16px">ten</text>
   <rect width="86" height="20" x="1338" y="572" style="fill:none;stroke:black;"/>
   <text width="86" height="20" x="1343" y="586" style="fill:black;" font-family="Arial" font-size="16px">id_toa</text>
   <rect width="86" height="20" x="1338" y="592" style="fill:none;stroke:black;"/>
   <text width="86" height="20" x="1343" y="606" style="fill:black;" font-family="Arial" font-size="16px">created_at</text>
   <rect width="86" height="20" x="1338" y="612" style="fill:none;stroke:black;"/>
   <text width="86" height="20" x="1343" y="626" style="fill:black;" font-family="Arial" font-size="16px">updated_at</text>
   <rect width="94" height="20" x="408" y="265" style="fill:#007;stroke:black;"/>
   <text width="94" height="20" x="413" y="279" style="fill:#fff;" font-family="Arial" font-size="16px"> thongbao</text>
   <rect width="94" height="20" x="408" y="285" style="fill:#aea;stroke:black;"/>
   <text width="94" height="20" x="413" y="299" style="fill:black;" font-family="Arial" font-size="16px">id_thongbao</text>
   <rect width="94" height="20" x="408" y="305" style="fill:none;stroke:black;"/>
   <text width="94" height="20" x="413" y="319" style="fill:black;" font-family="Arial" font-size="16px">id_user</text>
   <rect width="94" height="20" x="408" y="325" style="fill:none;stroke:black;"/>
   <text width="94" height="20" x="413" y="339" style="fill:black;" font-family="Arial" font-size="16px">tieude</text>
   <rect width="94" height="20" x="408" y="345" style="fill:none;stroke:black;"/>
   <text width="94" height="20" x="413" y="359" style="fill:black;" font-family="Arial" font-size="16px">noidung</text>
   <rect width="94" height="20" x="408" y="365" style="fill:none;stroke:black;"/>
   <text width="94" height="20" x="413" y="379" style="fill:black;" font-family="Arial" font-size="16px">thoigian</text>
   <rect width="94" height="20" x="408" y="385" style="fill:none;stroke:black;"/>
   <text width="94" height="20" x="413" y="399" style="fill:black;" font-family="Arial" font-size="16px">nhan</text>
   <rect width="94" height="20" x="408" y="405" style="fill:none;stroke:black;"/>
   <text width="94" height="20" x="413" y="419" style="fill:black;" font-family="Arial" font-size="16px">created_at</text>
   <rect width="94" height="20" x="408" y="425" style="fill:none;stroke:black;"/>
   <text width="94" height="20" x="413" y="439" style="fill:black;" font-family="Arial" font-size="16px">updated_at</text>
   <rect width="86" height="20" x="413" y="499" style="fill:#007;stroke:black;"/>
   <text width="86" height="20" x="418" y="513" style="fill:#fff;" font-family="Arial" font-size="16px"> tintuc</text>
   <rect width="86" height="20" x="413" y="519" style="fill:#aea;stroke:black;"/>
   <text width="86" height="20" x="418" y="533" style="fill:black;" font-family="Arial" font-size="16px">id</text>
   <rect width="86" height="20" x="413" y="539" style="fill:none;stroke:black;"/>
   <text width="86" height="20" x="418" y="553" style="fill:black;" font-family="Arial" font-size="16px">tieude</text>
   <rect width="86" height="20" x="413" y="559" style="fill:none;stroke:black;"/>
   <text width="86" height="20" x="418" y="573" style="fill:black;" font-family="Arial" font-size="16px">id_user</text>
   <rect width="86" height="20" x="413" y="579" style="fill:none;stroke:black;"/>
   <text width="86" height="20" x="418" y="593" style="fill:black;" font-family="Arial" font-size="16px">hinhanh</text>
   <rect width="86" height="20" x="413" y="599" style="fill:none;stroke:black;"/>
   <text width="86" height="20" x="418" y="613" style="fill:black;" font-family="Arial" font-size="16px">noidung</text>
   <rect width="86" height="20" x="413" y="619" style="fill:none;stroke:black;"/>
   <text width="86" height="20" x="418" y="633" style="fill:black;" font-family="Arial" font-size="16px">thoigian</text>
   <rect width="86" height="20" x="413" y="639" style="fill:none;stroke:black;"/>
   <text width="86" height="20" x="418" y="653" style="fill:black;" font-family="Arial" font-size="16px">created_at</text>
   <rect width="86" height="20" x="413" y="659" style="fill:none;stroke:black;"/>
   <text width="86" height="20" x="418" y="673" style="fill:black;" font-family="Arial" font-size="16px">updated_at</text>
   <rect width="86" height="20" x="1341" y="674" style="fill:#007;stroke:black;"/>
   <text width="86" height="20" x="1346" y="688" style="fill:#fff;" font-family="Arial" font-size="16px"> toa</text>
   <rect width="86" height="20" x="1341" y="694" style="fill:#aea;stroke:black;"/>
   <text width="86" height="20" x="1346" y="708" style="fill:black;" font-family="Arial" font-size="16px">id_toa</text>
   <rect width="86" height="20" x="1341" y="714" style="fill:none;stroke:black;"/>
   <text width="86" height="20" x="1346" y="728" style="fill:black;" font-family="Arial" font-size="16px">ten</text>
   <rect width="86" height="20" x="1341" y="734" style="fill:none;stroke:black;"/>
   <text width="86" height="20" x="1346" y="748" style="fill:black;" font-family="Arial" font-size="16px">created_at</text>
   <rect width="86" height="20" x="1341" y="754" style="fill:none;stroke:black;"/>
   <text width="86" height="20" x="1346" y="768" style="fill:black;" font-family="Arial" font-size="16px">updated_at</text>
   <rect width="86" height="20" x="682" y="227" style="fill:#007;stroke:black;"/>
   <text width="86" height="20" x="687" y="241" style="fill:#fff;" font-family="Arial" font-size="16px"> users</text>
   <rect width="86" height="20" x="682" y="247" style="fill:#aea;stroke:black;"/>
   <text width="86" height="20" x="687" y="261" style="fill:black;" font-family="Arial" font-size="16px">id</text>
   <rect width="86" height="20" x="682" y="267" style="fill:none;stroke:black;"/>
   <text width="86" height="20" x="687" y="281" style="fill:black;" font-family="Arial" font-size="16px">name</text>
   <rect width="86" height="20" x="682" y="287" style="fill:none;stroke:black;"/>
   <text width="86" height="20" x="687" y="301" style="fill:black;" font-family="Arial" font-size="16px">ngaysinh</text>
   <rect width="86" height="20" x="682" y="307" style="fill:none;stroke:black;"/>
   <text width="86" height="20" x="687" y="321" style="fill:black;" font-family="Arial" font-size="16px">email</text>
   <rect width="86" height="20" x="682" y="327" style="fill:none;stroke:black;"/>
   <text width="86" height="20" x="687" y="341" style="fill:black;" font-family="Arial" font-size="16px">sdt</text>
   <rect width="86" height="20" x="682" y="347" style="fill:none;stroke:black;"/>
   <text width="86" height="20" x="687" y="361" style="fill:black;" font-family="Arial" font-size="16px">password</text>
   <rect width="86" height="20" x="682" y="367" style="fill:none;stroke:black;"/>
   <text width="86" height="20" x="687" y="381" style="fill:black;" font-family="Arial" font-size="16px">quyen</text>
   <rect width="86" height="20" x="682" y="387" style="fill:none;stroke:black;"/>
   <text width="86" height="20" x="687" y="401" style="fill:black;" font-family="Arial" font-size="16px">STK</text>
   <rect width="86" height="20" x="682" y="407" style="fill:none;stroke:black;"/>
   <text width="86" height="20" x="687" y="421" style="fill:black;" font-family="Arial" font-size="16px">trangthai</text>
   <rect width="86" height="20" x="682" y="427" style="fill:none;stroke:black;"/>
   <text width="86" height="20" x="687" y="441" style="fill:black;" font-family="Arial" font-size="16px">created_at</text>
   <rect width="86" height="20" x="682" y="447" style="fill:none;stroke:black;"/>
   <text width="86" height="20" x="687" y="461" style="fill:black;" font-family="Arial" font-size="16px">updated_at</text>
</svg>
